<svg width="1920" height="419" viewBox="0 0 1920 419" fill="none" xmlns="http://www.w3.org/2000/svg">
<path d="M1920 41C1813.33 63.6667 1561.6 146.2 1408 295C1254.4 443.8 1095 385.5 1080 349C1072.32 330.31 1080 287 1128 295C1176 303 1164 343.667 1152 363C1134 383.667 1078.4 423.4 1000 417C902 409 836 295 700 273C562.463 250.751 398 305 242 251C117.2 207.8 18 61 -6 1" stroke="#599C00" stroke-opacity="0.4" stroke-width="2" stroke-dasharray="4 4"/>
<path d="M1267.59 364.811L1266.59 364.792L1266.39 375.559L1267.39 375.578L1267.59 364.811Z" fill="#111111"/>
<path d="M1266.74 379.85L1265.75 379.705L1266.31 375.749C1265.42 375.846 1263.54 376.136 1261.83 376.427L1261.67 375.458C1267.13 374.522 1267.18 374.635 1267.36 375.071L1267.28 375.345L1267.38 375.361L1266.74 379.85Z" fill="#111111"/>
<path d="M1267.19 375.666L1266.56 374.902L1261.99 378.565L1262.63 379.328L1267.19 375.666Z" fill="#111111"/>
<path d="M1275.42 367.814L1274.42 367.795L1274.21 378.563L1275.21 378.582L1275.42 367.814Z" fill="#111111"/>
<path d="M1274.56 382.853L1273.58 382.708L1274.14 378.752C1273.25 378.849 1271.36 379.14 1269.66 379.43L1269.49 378.461C1274.96 377.525 1275.01 377.638 1275.19 378.074L1275.1 378.348L1275.2 378.365L1274.56 382.853Z" fill="#111111"/>
<path d="M1275.02 378.658L1274.39 377.895L1269.83 381.558L1270.46 382.321L1275.02 378.658Z" fill="#111111"/>
<path d="M1248.94 334.025C1250.78 315.101 1274.01 309.531 1277.66 327.389C1281.32 345.247 1275.28 354.193 1286.28 359.263C1297.27 364.333 1304.26 350.414 1304.26 352.546C1304.26 354.677 1300.25 370.404 1282.6 371.228C1271.81 371.744 1246.15 362.541 1248.94 334.025Z" fill="#FFD34E"/>
<path d="M1260.31 338.208C1264.03 338.208 1267.05 335.236 1267.05 331.571C1267.05 327.906 1264.03 324.935 1260.31 324.935C1256.58 324.935 1253.56 327.906 1253.56 331.571C1253.56 335.236 1256.58 338.208 1260.31 338.208Z" fill="white"/>
<path d="M1259.49 333.783C1260.9 333.783 1262.05 332.655 1262.05 331.264C1262.05 329.873 1260.9 328.745 1259.49 328.745C1258.07 328.745 1256.93 329.873 1256.93 331.264C1256.93 332.655 1258.07 333.783 1259.49 333.783Z" fill="#111111"/>
<path d="M1257.83 332.007C1258.26 332.007 1258.6 331.667 1258.6 331.248C1258.6 330.829 1258.26 330.489 1257.83 330.489C1257.4 330.489 1257.06 330.829 1257.06 331.248C1257.06 331.667 1257.4 332.007 1257.83 332.007Z" fill="#FCFCFC"/>
<path d="M1249.45 330.974L1242 329.101L1248.96 334.025C1249.04 332.976 1249.22 331.959 1249.45 330.974Z" fill="#111111"/>
<path d="M1248.94 334.025C1248.99 333.541 1249.05 333.057 1249.12 332.588L1244.31 338.127L1248.77 336.092C1248.82 335.414 1248.87 334.736 1248.94 334.025Z" fill="#111111"/>
<path d="M1264.77 319.122L1263.83 317.975C1264.03 317.814 1268.85 314.052 1271.64 312.792L1272.27 314.133C1269.64 315.311 1264.82 319.073 1264.77 319.122Z" fill="#FFD34E"/>
<path d="M1272.55 314.843C1273.65 314.843 1274.55 313.983 1274.55 312.922C1274.55 311.86 1273.65 311 1272.55 311C1271.44 311 1270.54 311.86 1270.54 312.922C1270.54 313.983 1271.44 314.843 1272.55 314.843Z" fill="#FFD34E"/>
<path d="M1269.38 319.606L1268.64 318.315C1268.87 318.185 1274.23 315.247 1277.2 314.455L1277.6 315.876C1274.81 316.635 1269.43 319.574 1269.38 319.606Z" fill="#FFD34E"/>
<path d="M1277.75 316.64C1278.84 316.816 1279.87 316.11 1280.04 315.063C1280.22 314.016 1279.47 313.024 1278.38 312.848C1277.29 312.671 1276.27 313.377 1276.09 314.424C1275.92 315.471 1276.66 316.463 1277.75 316.64Z" fill="#FFD34E"/>
<path d="M1271.64 322.755L1271.18 321.35C1271.43 321.269 1277.29 319.429 1280.35 319.235L1280.45 320.704C1277.56 320.898 1271.69 322.739 1271.64 322.755Z" fill="#FFD34E"/>
<path d="M1280.45 321.475C1281.48 321.862 1282.63 321.37 1283.01 320.378C1283.4 319.386 1282.87 318.269 1281.84 317.883C1280.8 317.497 1279.65 317.988 1279.27 318.98C1278.89 319.972 1279.42 321.089 1280.45 321.475Z" fill="#FFD34E"/>
<path d="M1269.81 350.657C1269.4 352.449 1269.72 359.505 1278.22 361.394C1286.21 363.17 1279.3 360.086 1278.22 358.197C1276.91 355.904 1277.61 351.739 1276.51 349.43C1274.96 346.232 1270.89 345.99 1269.81 350.657Z" fill="#599C00"/>
<path d="M1021.03 35.5708L1029.32 41.1254L1020.27 38.1447C1020.54 37.3393 1020.8 36.4813 1021.03 35.5708Z" fill="#111111"/>
<path d="M1020.35 37.9402L1026.27 46.192L1019.34 40.621C1019.68 39.8371 1020.03 38.9274 1020.35 37.9402Z" fill="#111111"/>
<path d="M1003.83 53.7574L1004.25 53.1025L1011.43 57.6447L1011.02 58.2996L1003.83 53.7574Z" fill="#111111"/>
<path d="M1011.36 61.0769L1012.11 60.9468C1011.86 59.3929 1011.65 58.5518 1011.5 58.0701C1012.22 58.065 1013.66 58.104 1014.97 58.1708L1015.01 57.401C1010.7 57.1948 1010.67 57.3061 1010.56 57.64L1010.73 58.1101C1010.69 58.0819 1010.67 58.0673 1010.67 58.0673C1010.83 58.2827 1011.15 59.8048 1011.36 61.0769Z" fill="#111111"/>
<path d="M1010.68 58.0795L1011.15 57.4705L1014.97 60.4605L1014.49 61.0696L1010.68 58.0795Z" fill="#111111"/>
<path d="M999.59 54.3043L1000.19 53.8101L1005.61 60.3569L1005.01 60.8511L999.59 54.3043Z" fill="#111111"/>
<path d="M1005.23 63.7015C1005.47 62.1483 1005.54 61.266 1005.52 60.77C1006.21 60.9904 1007.56 61.4787 1008.77 61.9561L1009.05 61.2428C1005.03 59.6907 1004.96 59.7865 1004.76 60.0747L1004.77 60.5707C1004.75 60.5309 1004.74 60.5047 1004.74 60.5047C1004.83 60.7781 1004.66 62.3247 1004.47 63.6155L1005.23 63.7015Z" fill="#111111"/>
<path d="M1004.75 60.5284L1005.39 60.0967L1008.09 64.1245L1007.44 64.5563L1004.75 60.5284Z" fill="#111111"/>
<path d="M1017.65 43.6833C1017.65 43.6833 1027.73 25.9111 1016.21 17.6765C1004.03 8.97134 994.532 18.4519 992.151 28.3129C989.953 37.4017 980.915 50.9934 967.219 44.2856C953.522 37.5778 996.512 74.4544 1017.65 43.6833Z" fill="#FFD643"/>
<path d="M996.23 33.4046C999.541 36.1069 999.68 41.5757 994.446 41.8034C989.212 42.0311 985.121 35.8012 986.952 36.0496C988.784 36.298 986.256 33.9376 982.514 31.6957C978.77 29.4664 981.717 29.3092 982.09 29.3391C982.464 29.369 975.99 23.697 981.072 25.1325C986.177 26.5826 993.081 30.8421 996.23 33.4046Z" fill="#E2683C"/>
<path d="M1015.05 47.0929C1005.07 58.1946 991.563 57.2476 981.028 53.5321C988.11 52.8401 994.617 48.8134 1000.76 43.9293C1007.44 38.6413 1013.12 44.6049 1015.05 47.0929Z" fill="#E2683C"/>
<path d="M1012.96 33.9991C1010.14 33.7732 1008.07 31.2756 1008.33 28.4206C1008.59 25.5656 1011.09 23.4343 1013.91 23.6602C1016.73 23.8862 1018.8 26.3838 1018.54 29.2388C1018.28 32.0938 1015.78 34.2251 1012.96 33.9991Z" fill="white"/>
<path d="M1013.9 30.6078C1012.83 30.522 1012.04 29.5741 1012.14 28.4904C1012.24 27.4068 1013.19 26.5978 1014.26 26.6836C1015.33 26.7694 1016.11 27.7173 1016.02 28.801C1015.92 29.8846 1014.97 30.6936 1013.9 30.6078Z" fill="#111111"/>
<path d="M1015.29 29.3199C1014.97 29.2941 1014.73 29.0085 1014.76 28.6821C1014.79 28.3556 1015.07 28.1119 1015.4 28.1377C1015.72 28.1636 1015.96 28.4492 1015.93 28.7756C1015.9 29.1021 1015.61 29.3458 1015.29 29.3199Z" fill="#FCFCFC"/>
</svg>
