<svg width="1920" height="1302" viewBox="0 0 1920 1302" fill="none" xmlns="http://www.w3.org/2000/svg">
<path d="M-14.5 655.5C266.167 642.5 767.8 91.8 819 421C870.2 750.2 1172.5 1129.5 1317.5 1191C1747.66 1373.45 2272.67 1308.5 2313.5 1137" stroke="#599C00" stroke-opacity="0.4" stroke-width="2" stroke-dasharray="4 4"/>
<path d="M-3.3241 55.5C76.6759 48.3333 222.376 57.1 209.176 161.5C203.613 205.5 156.509 235.333 105.676 205.5C73.1758 186.426 -16.7241 88.7 157.676 25.5C332.076 -37.7 551.676 40.8333 639.676 88C736.843 162.5 960.076 316.4 1075.68 336C1220.18 360.5 1320.01 252.429 1460.18 303.5C1671.5 380.5 1983.7 551.8 1922.5 835" stroke="#599C00" stroke-opacity="0.4" stroke-width="2" stroke-dasharray="4 4"/>
<path d="M1657.59 635.669L1656.59 635.65L1656.38 646.59L1657.39 646.609L1657.59 635.669Z" fill="#111111"/>
<path d="M1656.74 650.949L1655.75 650.801L1656.31 646.782C1655.43 646.88 1653.54 647.176 1651.83 647.471L1651.67 646.487C1657.13 645.535 1657.18 645.65 1657.36 646.093L1657.28 646.372L1657.38 646.388L1656.74 650.949Z" fill="#111111"/>
<path d="M1657.19 646.697L1656.56 645.922L1651.99 649.643L1652.63 650.419L1657.19 646.697Z" fill="#111111"/>
<path d="M1665.42 638.72L1664.42 638.701L1664.21 649.641L1665.21 649.66L1665.42 638.72Z" fill="#111111"/>
<path d="M1664.56 654L1663.58 653.852L1664.14 649.833C1663.25 649.932 1661.36 650.227 1659.66 650.522L1659.49 649.538C1664.96 648.586 1665.01 648.701 1665.19 649.144L1665.1 649.423L1665.2 649.44L1664.56 654Z" fill="#111111"/>
<path d="M1665.02 649.738L1664.39 648.962L1659.83 652.684L1660.46 653.459L1665.02 649.738Z" fill="#111111"/>
<path d="M1638.94 604.393C1640.78 585.167 1664 579.507 1667.66 597.651C1671.32 615.794 1665.28 624.882 1676.28 630.033C1687.27 635.184 1694.25 621.043 1694.25 623.209C1694.25 625.374 1690.25 641.352 1672.6 642.189C1661.81 642.714 1636.15 633.363 1638.94 604.393Z" fill="#FFD34E"/>
<path d="M1650.31 608.642C1654.03 608.642 1657.05 605.623 1657.05 601.899C1657.05 598.176 1654.03 595.157 1650.31 595.157C1646.58 595.157 1643.56 598.176 1643.56 601.899C1643.56 605.623 1646.58 608.642 1650.31 608.642Z" fill="white"/>
<path d="M1649.49 604.147C1650.9 604.147 1652.05 603.001 1652.05 601.588C1652.05 600.174 1650.9 599.029 1649.49 599.029C1648.07 599.029 1646.93 600.174 1646.93 601.588C1646.93 603.001 1648.07 604.147 1649.49 604.147Z" fill="#111111"/>
<path d="M1647.83 602.342C1648.26 602.342 1648.6 601.997 1648.6 601.571C1648.6 601.145 1648.26 600.8 1647.83 600.8C1647.4 600.8 1647.06 601.145 1647.06 601.571C1647.06 601.997 1647.4 602.342 1647.83 602.342Z" fill="#FCFCFC"/>
<path d="M1639.45 601.292L1632 599.389L1638.96 604.393C1639.04 603.327 1639.22 602.293 1639.45 601.292Z" fill="#111111"/>
<path d="M1638.94 604.393C1638.99 603.901 1639.05 603.409 1639.12 602.933L1634.31 608.56L1638.78 606.493C1638.82 605.804 1638.87 605.115 1638.94 604.393Z" fill="#111111"/>
<path d="M1654.77 589.251L1653.83 588.087C1654.03 587.923 1658.85 584.1 1661.64 582.821L1662.27 584.182C1659.64 585.38 1654.82 589.202 1654.77 589.251Z" fill="#FFD34E"/>
<path d="M1662.55 584.904C1663.65 584.904 1664.55 584.03 1664.55 582.952C1664.55 581.874 1663.65 581 1662.55 581C1661.44 581 1660.54 581.874 1660.54 582.952C1660.54 584.03 1661.44 584.904 1662.55 584.904Z" fill="#FFD34E"/>
<path d="M1659.38 589.744L1658.64 588.431C1658.87 588.3 1664.23 585.314 1667.2 584.511L1667.6 585.954C1664.81 586.725 1659.43 589.711 1659.38 589.744Z" fill="#FFD34E"/>
<path d="M1667.75 586.729C1668.84 586.909 1669.87 586.192 1670.04 585.128C1670.22 584.064 1669.47 583.057 1668.38 582.877C1667.29 582.698 1666.27 583.415 1666.09 584.478C1665.92 585.542 1666.66 586.55 1667.75 586.729Z" fill="#FFD34E"/>
<path d="M1661.64 592.942L1661.18 591.515C1661.43 591.433 1667.29 589.563 1670.35 589.366L1670.45 590.859C1667.56 591.056 1661.69 592.926 1661.64 592.942Z" fill="#FFD34E"/>
<path d="M1670.45 591.643C1671.48 592.035 1672.63 591.536 1673.01 590.528C1673.4 589.52 1672.87 588.385 1671.84 587.992C1670.8 587.6 1669.66 588.099 1669.27 589.107C1668.89 590.115 1669.42 591.25 1670.45 591.643Z" fill="#FFD34E"/>
<path d="M1659.81 621.289C1659.4 623.11 1659.72 630.279 1668.22 632.198C1676.21 634.003 1669.3 630.87 1668.22 628.95C1666.91 626.621 1667.61 622.389 1666.52 620.043C1664.96 616.795 1660.89 616.549 1659.81 621.289Z" fill="#599C00"/>
<path d="M1642 389C1645.33 402.333 1656.8 434.6 1676 457C1695.2 479.4 1679.33 500.333 1669 508C1657 523 1637.8 560 1657 588" stroke="#FFD34E" stroke-width="1.5"/>
<path d="M343.889 488.107L344.48 488.095L344.607 494.561L344.015 494.573L343.889 488.107Z" fill="#111111"/>
<path d="M344.115 494.637L344.489 494.179L347.186 496.379L346.812 496.838L344.115 494.637Z" fill="#111111"/>
<path d="M339.264 489.91L339.855 489.899L339.982 496.365L339.39 496.376L339.264 489.91Z" fill="#111111"/>
<path d="M339.497 496.433L339.871 495.975L342.568 498.175L342.194 498.634L339.497 496.433Z" fill="#111111"/>
<path d="M331.23 489.003C331.23 489.003 327.147 490.079 322.425 488.673C317.703 487.267 320.951 484.688 323.162 485.648C325.373 486.608 320.583 483.951 321.834 482.177C323.085 480.402 325.615 482.914 325.615 482.914C325.615 482.914 323.492 479.666 325.615 479.443C327.739 479.22 329.281 486.589 332.316 486.967C335.341 487.345 332.946 489.11 331.23 489.003Z" fill="#E2683C"/>
<path d="M350.322 449.985C349.488 451.061 348.605 452.865 348.605 454.571C346.482 453.602 344.067 453.204 341.798 453.369C341.459 452.409 340.848 450.14 341.983 448.443C343.457 446.233 344.048 448.443 344.048 448.443C344.048 448.443 345.231 446.155 346.627 446.3C348.033 446.446 347.81 447.706 347.81 447.706C347.81 447.706 350.244 445.127 352.532 446.601C354.821 448.075 351.359 448.657 350.322 449.985Z" fill="#E2683C"/>
<path d="M355.325 466.963C355.771 467.778 356.304 468.97 356.672 470.522C357.409 473.625 356.672 473.693 356.672 473.693C356.672 473.693 355.761 471.298 354.539 470.221C354.908 469.31 355.218 468.214 355.325 466.963Z" fill="#111111"/>
<path d="M352.339 473.567C352.339 473.567 358.05 468.447 353.813 459.487C349.585 450.528 332.161 451.217 333.344 462.338C334.527 473.46 339.743 486.744 332.752 486.947C325.761 487.141 333.247 490.787 339.152 490.787C344.96 490.787 355.888 486.56 352.339 473.567Z" fill="#FFD34E"/>
<path d="M344.387 465.499C344.387 467.7 346.171 469.484 348.372 469.484C350.573 469.484 352.357 467.7 352.357 465.499C352.357 463.298 350.573 461.514 348.372 461.514C346.171 461.514 344.387 463.298 344.387 465.499Z" fill="white"/>
<path d="M348.857 466.828C348.022 466.828 347.345 466.15 347.345 465.315C347.345 464.48 348.022 463.802 348.857 463.802C349.693 463.802 350.37 464.48 350.37 465.315C350.37 466.15 349.693 466.828 348.857 466.828Z" fill="#111111"/>
<path d="M349.837 465.751C349.586 465.751 349.382 465.547 349.382 465.296C349.382 465.044 349.586 464.84 349.837 464.84C350.089 464.84 350.293 465.044 350.293 465.296C350.293 465.547 350.089 465.751 349.837 465.751Z" fill="#FCFCFC"/>
<path d="M344.388 474.798C345.813 475.486 347.17 479.375 345.648 482.526C344.126 485.677 340.674 487.054 340.974 485.92C341.265 484.785 338.609 487.2 337.484 487.006C336.349 486.812 340.732 484.659 340.635 480.907C340.528 477.164 341.12 473.217 344.388 474.798Z" fill="#E2683C"/>
<path d="M354.607 470.027C355.053 470.318 355.47 470.784 355.596 471.53H353.89C354.142 471.094 354.394 470.599 354.607 470.027Z" fill="#111111"/>
<path d="M344.397 497.138L344.979 497.051L344.649 494.675C345.173 494.734 346.288 494.908 347.296 495.083L347.393 494.501C344.164 493.939 344.135 494.016 344.028 494.268L344.077 494.433L344.019 494.443L344.397 497.138Z" fill="#111111"/>
<path d="M339.772 498.942L340.354 498.855L340.024 496.479C340.548 496.537 341.663 496.712 342.671 496.886L342.768 496.304C339.539 495.742 339.51 495.81 339.403 496.072L339.452 496.237L339.394 496.246L339.772 498.942Z" fill="#111111"/>
</svg>
