<svg width="1920" height="2271" viewBox="0 0 1920 2271" fill="none" xmlns="http://www.w3.org/2000/svg">
<path d="M35.6309 1060.37C208.775 1009.93 479.817 870.374 178.825 715.628C-122.167 560.881 38.1369 403.3 155.913 343.853C243.836 294.992 408.384 240.671 424.094 357.116C439.804 473.561 312.87 501.281 264.519 471.983C224.105 440.436 183.486 346.288 344.322 222.069C419.458 164.039 492.167 80.3944 553.9 -2.99998" stroke="#599C00" stroke-opacity="0.6" stroke-dasharray="6 6"/>
<path d="M1419.63 2367.37C1592.77 2316.93 1863.82 2177.37 1562.82 2022.63C1261.83 1867.88 1422.14 1710.3 1539.91 1650.85C1627.84 1601.99 1792.38 1547.67 1808.09 1664.12C1823.8 1780.56 1696.87 1808.28 1648.52 1778.98C1608.1 1747.44 1567.49 1653.29 1728.32 1529.07C1822.47 1456.35 1880.28 1396.36 1923.01 1338" stroke="#599C00" stroke-opacity="0.6" stroke-dasharray="6 6"/>
</svg>
