<svg width="207" height="349" viewBox="0 0 207 349" fill="none" xmlns="http://www.w3.org/2000/svg">
<path d="M128.1 264.66C112.899 285.761 110.445 313.174 108.615 339.108C111.177 340.465 113.738 341.822 116.299 343.194C117.915 315.248 128.329 287.865 145.694 265.91" fill="#EAB53D"/>
<path d="M72.6183 222.321C43.1929 223.602 14.9262 240.617 0 266.002C2.48515 268.014 4.78736 270.118 7.34874 272.07C18.3871 246.487 49.8708 236.912 75.6523 238.177" fill="#EAB53D"/>
<path d="M176.492 265.59C174.997 268.274 173.29 270.82 171.46 273.198C166.307 279.876 165.087 285.853 156.107 285.06C148.972 284.435 142.081 282.224 135.22 280.303C122.032 276.629 109.331 271.369 96.8599 265.758C88.3982 261.946 81.2782 255.878 74.0514 250.054C57.4634 236.699 57.8751 204.91 62.8606 186.035C65.4068 176.399 66.8094 166.52 68.5475 156.701C69.0659 153.759 72.6183 126.208 74.2801 125.995C61.4275 127.642 50.9532 125.019 39.8691 118.113C39.1983 117.701 38.5122 117.274 37.7652 117.015C36.6827 116.649 35.5087 116.664 34.3652 116.618C27.2909 116.374 19.6373 114.545 16.0239 107.928C13.0356 102.47 12.4715 93.8099 18.57 90.5929C24.6838 87.3607 31.4227 88.0163 38.0701 88.7481C43.5588 89.3427 49.017 87.6962 54.4294 86.5832C64.553 84.5097 74.9357 81.2927 85.3794 82.2684C92.9874 82.985 98.8419 87.3607 101.906 94.313C105.642 102.775 105.718 110.184 104.575 119.256C102.791 133.45 98.0491 148.499 99.0401 162.845C100.153 178.915 98.659 192.423 115.933 198.964C130.814 204.59 147.249 207.487 161.443 214.652C169.25 218.586 176.492 224.547 179.998 232.765C184.709 243.727 182.072 255.558 176.492 265.59Z" fill="#FFCB47"/>
<path d="M88.3523 116.618C89.4805 114.85 87.8187 112.715 86.3093 111.877C84.2206 110.718 80.7444 110.002 79.0673 112.258C78.122 113.523 78.3507 115.444 79.3722 116.664C80.3937 117.884 82.0251 118.448 83.6107 118.463C84.8914 118.463 86.1568 118.143 87.285 117.533C87.6967 117.289 88.0931 117.015 88.3523 116.618Z" fill="#FBAB66"/>
<path d="M89.1755 88.1993C90.5477 86.0648 85.5164 83.8693 84.7083 87.0558C84.4034 88.2602 85.2724 89.6172 86.4922 89.8611C86.6904 89.9068 86.9038 89.9221 87.102 89.8458C87.285 89.7849 87.4374 89.6781 87.5746 89.5562C87.91 89.297 88.2607 89.0226 88.5962 88.7634C88.8096 88.5957 89.0383 88.428 89.1755 88.1993Z" fill="#EB9A49"/>
<path d="M96.174 92.2548C96.235 91.3248 96.0368 90.0288 95.305 89.3732C94.9238 89.0226 93.7956 88.306 93.2924 88.2602C92.0422 88.1383 90.3346 89.5257 89.5266 90.3337C89.3131 90.5472 89.0997 90.7912 88.9625 91.0656C88.6575 91.7212 88.8405 92.4987 89.0844 93.2001C89.4046 94.1148 89.862 95.0753 90.7311 95.5175C91.4781 95.8987 92.3929 95.7919 93.1552 95.4565C93.9175 95.1211 94.5579 94.5722 95.1982 94.0386C95.4879 93.7947 95.7928 93.5355 95.9605 93.1848C96.0978 92.8951 96.1588 92.575 96.174 92.2548Z" fill="#EB9A49"/>
<path d="M82.8179 86.6747C83.3211 86.1106 83.8394 85.394 83.4278 84.6012C83.0466 83.8388 81.7354 83.7779 80.9884 83.8236C80.7902 83.8389 80.592 83.8541 80.409 83.9456C79.9821 84.1743 79.8449 84.7079 79.7382 85.1805C79.6315 85.7142 79.5247 86.263 79.6162 86.7966C79.7077 87.3303 80.0736 87.8486 80.592 87.9858C81.0341 88.0926 81.5067 87.9096 81.8574 87.6352C82.2386 87.376 82.513 87.0101 82.8179 86.6747Z" fill="#EB9A49"/>
<path d="M81.5983 93.4439C81.9948 93.947 82.7265 95.2582 83.4736 95.2277C84.0072 95.2125 85.1507 93.9775 85.5929 93.6726C85.7758 93.5354 85.974 93.3982 86.0655 93.1847C86.1875 92.8645 86.035 92.5139 85.8673 92.2242C85.0897 90.8063 83.7176 89.053 81.827 89.8C81.1409 90.0745 80.6226 90.7606 80.6226 91.4924C80.6226 92.2242 81.1257 92.8646 81.5983 93.4439Z" fill="#EB9A49"/>
<path d="M87.3765 94.862C86.6142 95.1212 85.9891 95.7462 85.7299 96.5086C85.6537 96.7678 85.608 97.027 85.6385 97.3014C85.7147 97.8045 86.0958 98.2162 86.5227 98.4601C86.9649 98.704 87.468 98.8108 87.9559 98.9175C88.1693 98.9633 88.3828 99.009 88.5657 98.9023C88.7029 98.826 88.7944 98.6736 88.8707 98.5364C89.0231 98.2772 89.1604 98.0027 89.3128 97.7435C89.5415 97.3319 89.7702 96.8745 89.6483 96.4171C89.572 96.1427 89.3586 95.914 89.1604 95.7005C88.9012 95.4261 88.642 95.1516 88.3218 94.9839C88.0016 94.8162 87.59 94.7553 87.2546 94.923" fill="#EB9A49"/>
<path d="M96.2497 97.7283C95.8685 97.1337 95.152 96.7068 94.8928 96.0208C94.1305 96.1275 93.4596 96.6306 92.8955 97.1184C92.4838 97.4691 92.1637 97.957 92.1027 98.4907C92.0265 99.1462 92.3466 99.7866 92.6668 100.366C92.7888 100.595 92.926 100.839 93.1547 100.976C93.4901 101.174 93.917 101.083 94.2829 100.976C94.7708 100.823 95.2739 100.671 95.7008 100.381C96.1277 100.092 96.4784 99.6646 96.5851 99.1615C96.6918 98.6584 96.5241 98.1552 96.2497 97.7283Z" fill="#EB9A49"/>
<path d="M78.9458 81.872C77.9395 78.1519 76.4911 74.5081 74.2652 71.3673C72.0392 68.2266 68.9747 65.589 65.3613 64.2625C64.8734 64.0796 64.2941 63.9271 63.8367 64.1711C63.3488 64.4303 63.1506 65.0249 63.0286 65.5737C62.2511 69.2176 62.8304 73.1207 64.66 76.3834C66.4743 79.6309 69.5083 82.177 73.015 83.4272" fill="#EAB53D"/>
<path d="M74.7064 82.2075C72.6938 77.8165 69.4464 74.005 65.4518 71.2911C65.1774 73.7001 66.1684 76.1395 67.7236 77.9995C69.2787 79.8596 71.3522 81.2165 73.5019 82.3447" fill="#BF7C3A"/>
<path d="M100.214 101.387C102.714 99.0089 106.038 97.652 109.423 97.0116C112.807 96.3713 116.283 96.3865 119.729 96.4627C122.839 96.5237 125.965 96.6152 129.075 96.7524C129.868 96.7829 130.829 96.9201 131.133 97.6519C131.286 98.0026 131.24 98.399 131.164 98.7802C130.249 103.613 125.599 107.044 120.781 108.004C115.963 108.965 110.978 107.928 106.221 106.724C104.422 106.266 102.531 105.732 101.266 104.36" fill="#EAB53D"/>
<path d="M102.272 104.071C108.371 101.281 115.415 101.997 122.062 102.927C122.413 102.973 122.779 103.034 123.007 103.293C123.297 103.629 123.236 104.162 122.977 104.513C122.718 104.864 122.306 105.077 121.894 105.245C119.043 106.434 115.811 106.312 112.762 105.824C109.713 105.321 106.709 104.482 103.629 104.269" fill="#BF7C3A"/>
<path d="M84.2515 100.793C84.0228 100.716 83.5654 102.15 82.239 103.949C81.5682 104.818 80.6229 105.763 79.3269 106.281C78.0615 106.8 76.3996 106.906 75.1342 106.098C73.8535 105.306 73.1522 103.811 72.9387 102.424C72.71 101.037 72.9387 99.6949 73.1979 98.5971C73.7773 96.3864 74.3262 94.999 74.1127 94.9075C73.945 94.8313 73.0607 96.0053 72.1612 98.277C71.7495 99.4204 71.3531 100.884 71.5361 102.607C71.719 104.269 72.4966 106.236 74.3109 107.394C76.1557 108.538 78.3359 108.279 79.8606 107.562C81.4614 106.83 82.483 105.595 83.1081 104.543C84.3735 102.378 84.4192 100.838 84.2515 100.793Z" fill="#E2683C"/>
<path d="M69.478 92.5139C69.2951 92.3614 68.4413 93.2914 66.8709 94.3739C66.0781 94.9076 65.0871 95.4564 63.9283 95.7766C62.8001 96.0815 61.2907 96.2187 60.6047 95.5021C59.8423 94.7398 59.9338 93.3829 60.4064 92.2852C60.8638 91.1417 61.4737 90.1964 62.0835 89.4951C63.3033 88.0772 64.523 87.7265 64.462 87.4978C64.462 87.3149 62.9831 87.2844 61.3212 88.7328C60.5132 89.4341 59.7204 90.4556 59.1105 91.7363C58.8209 92.3766 58.5464 93.139 58.5464 94.0233C58.5464 94.8923 58.8056 95.8528 59.5222 96.5847C60.2692 97.3317 61.2908 97.5299 62.0988 97.5299C62.9374 97.5147 63.6539 97.3622 64.3552 97.1335C65.7274 96.6761 66.7794 95.9291 67.557 95.243C69.0816 93.8098 69.6152 92.6206 69.478 92.5139Z" fill="#E2683C"/>
<path d="M40.7533 96.9659C40.1892 94.1758 39.4421 91.3857 38.3596 88.7633C38.2682 88.7481 38.1767 88.7633 38.0852 88.7481C31.4378 88.0162 24.6989 87.3606 18.5851 90.5929C12.4866 93.8098 13.0507 102.47 16.039 107.928C19.6524 114.53 27.3061 116.374 34.3804 116.618C35.5238 116.664 36.6978 116.649 37.7803 117.015C38.2834 117.182 38.756 117.442 39.2287 117.716C40.3722 114.911 41.2564 112.029 41.5918 109.01C42.0492 105.001 41.5614 100.93 40.7533 96.9659Z" fill="#E99D47"/>
<path d="M109.316 93.7947C108.69 91.9194 106.754 90.7455 104.818 91.0047C106.099 88.8702 108.218 86.0038 106.465 83.5187C104.925 81.369 101.525 80.3322 99.3597 81.9941C99.5884 80.6066 99.7104 79.5089 99.1158 78.1977C98.2772 76.3834 96.9813 74.5691 95.0603 74.0202C93.1392 73.4713 90.6388 74.8893 90.8522 76.8865C90.1662 74.2794 87.4828 72.2974 84.7995 72.5413C78.3198 73.1054 79.4937 80.1493 83.3816 83.0461C86.9035 85.6684 91.9957 87.9706 96.3409 88.1993C95.4262 91.5383 96.5849 95.3499 99.1768 97.6216C102.836 100.854 111.679 100.96 109.316 93.7947Z" fill="#E2683C"/>
<path d="M89.1605 71.23C88.7031 75.4227 87.7274 79.4783 86.2942 83.4423C85.7148 85.0584 88.2762 85.7445 88.8404 84.1436C90.3497 79.9509 91.3102 75.6667 91.8134 71.23C91.9963 69.5376 89.3435 69.5529 89.1605 71.23Z" fill="#EFB635"/>
<path d="M98.3689 93.4135C104.025 89.4647 108.111 84.0523 110.368 77.5421C110.932 75.926 108.371 75.2399 107.822 76.8407C105.809 82.6648 102.089 87.6047 97.0425 91.1418C95.6398 92.0871 96.9663 94.3893 98.3689 93.4135Z" fill="#EFB635"/>
<path d="M90.7305 71.8857C96.707 71.8857 96.707 62.616 90.7305 62.616C84.7539 62.616 84.7539 71.8857 90.7305 71.8857Z" fill="#BF7C3A"/>
<path d="M113.203 77.1457C113.264 77.0847 113.31 77.039 113.371 76.978C115.155 75.1942 115.155 72.2059 113.371 70.4221C111.587 68.6383 108.599 68.6383 106.815 70.4221C106.754 70.4831 106.708 70.5288 106.647 70.5898C104.864 72.3736 104.864 75.3619 106.647 77.1457C108.447 78.9296 111.42 78.9296 113.203 77.1457Z" fill="#BF7C3A"/>
<path d="M104.605 119.271C102.821 133.466 98.0798 148.514 99.0708 162.861C100.184 178.93 98.6896 192.438 115.964 198.979C130.844 204.605 147.28 207.502 161.474 214.668C164.889 216.39 168.625 218.662 171.964 221.407C172.238 219.928 172.116 218.311 171.659 217.061C171.003 215.323 169.25 213.677 167.481 214.225C166.49 214.53 165.697 215.46 164.66 215.491C164.66 212.93 165.377 210.704 162.48 209.652C160.361 208.889 157.998 209.362 155.909 210.155C157.281 207.898 155.863 204.651 153.409 203.675C150.954 202.714 148.011 203.766 146.304 205.779C147.066 202.577 144.764 199.071 141.608 198.156C138.452 197.241 134.839 198.75 132.963 201.449C133.893 198.628 131.759 195.381 128.893 194.649C126.026 193.917 122.87 195.381 121.117 197.759C123.053 195.32 121.3 191.325 118.418 190.152C115.522 188.978 112.183 189.938 109.469 191.493C111.07 188.657 113.082 186.477 111.222 183.245C109.774 180.745 106.618 179.372 103.797 179.997C107.06 179.174 109.423 175.729 109.027 172.39C108.63 169.051 105.55 166.245 102.181 166.184C104.59 165.391 106.313 162.876 106.176 160.345C106.038 157.814 104.041 155.497 101.556 154.978C104.224 153.667 107.944 152.402 107.731 149.002C107.593 147.004 105.352 142.583 102.669 143.132C105.459 142.552 107.99 140.357 108.402 137.552C108.828 134.746 106.648 131.651 103.812 131.56C106.74 132.154 109.957 129.989 110.506 127.062C111.07 124.12 108.874 120.933 105.932 120.415C108.463 119.409 110.338 116.908 110.612 114.194C110.963 110.611 108.371 106.373 105.063 105.931C105.459 110.185 105.2 114.499 104.605 119.271Z" fill="#E2683C"/>
<path d="M144.353 257.784C146.67 261.352 147.219 265.743 147.722 269.966C149.491 284.923 149.613 301.297 152.83 315.873C156.123 330.814 166.521 345.131 181.386 348.774C182.728 346.93 184.084 345.1 185.426 343.255C172.177 335.114 166.658 318.678 164.417 303.279C163.167 294.635 162.694 285.441 166.368 277.513C170.149 269.387 178.154 262.739 178.215 253.775" fill="#FFCB47"/>
<path d="M75.2102 250.436C59.3388 275.043 51.5327 304.774 53.2707 334.001C56.3962 335.586 59.5217 337.187 62.6472 338.773C63.5773 316.346 64.9189 292.622 77.5124 274.052C81.8271 267.679 87.3615 262.16 93.5211 257.525" fill="#FFCB47"/>
<path d="M99.955 144.946C100.031 144.946 100.077 144.931 100.153 144.931C101.358 137.109 103.157 129.273 104.27 121.65C103.324 121.421 102.303 121.68 101.937 122.519C97.4241 122.641 92.6062 124.516 91.0511 128.678C89.9991 131.484 90.7309 134.701 92.2556 137.277C93.7802 139.854 96.0367 141.912 98.2474 143.925C98.7505 144.397 99.2841 144.87 99.955 144.946Z" fill="#EB9A49"/>
<path d="M93.6585 153.499C93.445 148.849 90.7465 146.715 84.6937 146.059C82.3457 145.8 79.8453 145.846 77.8023 147.05C73.5638 149.535 72.71 157.844 73.3504 162.098C74.1127 167.099 79.9215 170.423 84.8309 169.203C91.1886 167.617 92.9114 161.793 93.5365 156.122C93.6585 155.176 93.689 154.307 93.6585 153.499Z" fill="#EB9A49"/>
<path d="M64.0803 180.958C63.6992 182.65 63.3028 184.343 62.8454 186.035C61.3055 191.859 60.2078 198.933 59.9028 206.297C61.2902 206.938 62.7386 207.166 64.187 206.572C66.3368 205.688 67.4345 203.294 68.0901 201.053C69.0049 197.942 69.508 194.71 69.5843 191.463C69.6452 188.688 69.3403 185.776 67.7394 183.504C66.8704 182.284 65.5287 181.354 64.0803 180.958Z" fill="#EB9A49"/>
<path d="M94.9848 187.59C92.6369 179.159 83.0164 181.476 80.0434 188.505C79.0829 190.777 79.0372 193.49 80.2111 195.671C81.3851 197.851 83.8702 199.33 86.3249 199.071C88.002 198.888 89.5114 197.958 90.8836 196.967C91.9356 196.204 92.9723 195.366 93.7346 194.314C95.1373 192.423 95.6099 189.862 94.9848 187.59Z" fill="#EB9A49"/>
<path d="M115.964 198.979C113.403 198.003 111.253 196.875 109.454 195.625C109.21 196.143 108.996 196.677 108.859 197.226C108.234 199.772 108.874 202.608 110.521 204.651C111.543 205.916 112.899 206.846 114.317 207.639C117.138 209.225 120.324 210.277 123.541 210.124C126.758 209.972 130.006 208.447 131.774 205.748C132.064 205.306 132.308 204.834 132.461 204.331C126.88 202.669 121.315 201.007 115.964 198.979Z" fill="#EB9A49"/>
<path d="M95.6101 230.142C96.7384 226.087 94.2075 214.484 90.0758 212.335C86.4166 210.429 80.2419 213.539 77.0096 215.414C75.5765 216.253 74.1128 217.244 73.3505 218.723C72.8017 219.775 72.6492 220.979 72.4967 222.169C71.9784 226.331 71.7039 231.194 74.7837 234.061C76.2778 235.448 78.3361 236.089 80.3486 236.47C83.3216 237.049 86.4624 237.201 89.3439 236.241C92.2255 235.28 94.8021 233.07 95.6101 230.142Z" fill="#EB9A49"/>
<path d="M131.012 225.157C125.157 219.668 116.818 217.778 112.046 225.889C110.414 228.664 109.942 231.957 109.835 235.174C109.804 236.348 109.82 237.568 110.292 238.65C110.826 239.854 111.863 240.739 112.96 241.471C114.836 242.706 116.955 243.59 119.15 244.017C120.141 244.215 121.163 244.322 122.139 244.047C123.739 243.605 124.898 242.233 125.935 240.922C127.917 238.437 129.899 235.967 131.896 233.481C132.628 232.567 133.39 231.606 133.589 230.447C133.939 228.435 132.506 226.56 131.012 225.157Z" fill="#EB9A49"/>
<path d="M146.547 208.63C145.48 210.521 144.855 212.67 145.068 214.805C145.328 217.229 146.654 219.409 148.179 221.315C149.932 223.51 152.295 225.569 155.101 225.614C156.808 225.63 158.409 224.898 159.949 224.181C161.687 223.373 163.562 222.413 164.34 220.675C164.66 219.958 164.767 219.165 164.812 218.372C164.843 217.747 164.843 217.137 164.797 216.528C163.699 215.872 162.587 215.262 161.474 214.698C156.701 212.259 151.685 210.338 146.547 208.63Z" fill="#EB9A49"/>
<path d="M174.449 237.446C175.547 229.868 163.38 228.588 160.117 233.924C158.684 236.256 158.638 239.321 159.843 241.791C161.047 244.246 163.395 246.075 166.048 246.792C167.024 247.051 168.091 247.173 169.052 246.837C171.171 246.09 171.933 243.559 172.848 241.516C173.443 240.175 174.235 238.894 174.449 237.446Z" fill="#EB9A49"/>
<path d="M159.324 260.971C160.452 255.177 156.015 245.404 149.536 244.672C143.452 243.986 137.323 250.649 135.936 256.061C135.738 256.854 135.631 257.708 135.875 258.486C136.088 259.126 136.531 259.675 136.973 260.193C140.113 263.913 144.154 267.664 149.017 267.542C150.618 267.511 152.173 267.039 153.713 266.551C155.207 266.078 156.747 265.529 157.799 264.371C158.653 263.441 159.095 262.206 159.324 260.971Z" fill="#EB9A49"/>
<path d="M119.119 261.581C121.696 257.601 123.845 252.524 118.982 249.704C115.155 247.493 109.026 248.393 106.617 252.28C104.787 255.223 105.275 259.416 107.745 261.87C109.483 263.593 111.969 264.401 114.408 264.416C115.338 264.416 116.299 264.31 117.091 263.837C117.976 263.319 118.555 262.434 119.119 261.581Z" fill="#EB9A49"/>
<path d="M78.6406 137.338C78.4729 135.265 77.0855 133.496 75.5456 132.109C74.7376 131.377 73.8075 130.721 72.8165 130.233C72.039 133.801 71.1699 139.076 70.4229 144.016C70.8193 144.062 71.2157 144.077 71.6121 144.062C75.2102 143.848 78.9151 140.936 78.6406 137.338Z" fill="#EB9A49"/>
<path d="M181.386 348.79C182.727 346.945 184.084 345.115 185.426 343.27C182.163 341.273 179.373 338.758 176.979 335.891C174.815 338.514 172.71 341.166 170.667 343.88C173.9 346.122 177.483 347.829 181.386 348.79Z" fill="#E2683C"/>
<path d="M109.591 326.652C109.225 330.829 108.905 334.992 108.615 339.123C111.177 340.48 113.738 341.837 116.299 343.209C116.543 339.032 117.001 334.87 117.626 330.738C115.003 329.274 112.32 327.917 109.591 326.652Z" fill="#E2683C"/>
<path d="M53.2706 334.001C56.3961 335.586 59.5216 337.187 62.6471 338.773C62.8148 334.809 62.9978 330.814 63.2417 326.804C59.8723 325.539 56.4723 324.319 53.0572 323.145C52.9809 326.774 53.0571 330.387 53.2706 334.001Z" fill="#E2683C"/>
<path d="M11.5415 264.447C9.10207 262.8 6.61691 261.23 4.10127 259.705C2.63762 261.748 1.26545 263.837 0 266.002C2.48515 268.015 4.78736 270.119 7.34874 272.07C8.52271 269.341 9.94062 266.81 11.5415 264.447Z" fill="#E2683C"/>
<path d="M44.9769 108.995C44.5957 108.767 42.629 111.999 38.6497 113.935C34.7009 115.963 30.9503 115.597 30.9045 116.054C30.8741 116.237 31.7888 116.619 33.3744 116.68C34.9448 116.756 37.1708 116.39 39.3358 115.307C41.5007 114.21 43.1169 112.639 44.0011 111.343C44.9007 110.032 45.1446 109.072 44.9769 108.995Z" fill="#E2683C"/>
<path d="M47.5225 111.694C47.6902 111.297 46.5315 110.428 45.7539 108.965C44.9306 107.516 44.8239 106.083 44.397 106.007C44.1988 105.976 43.9396 106.358 43.8481 107.059C43.7566 107.745 43.8938 108.751 44.4122 109.697C44.9306 110.642 45.7082 111.297 46.3333 111.587C46.9736 111.892 47.4463 111.877 47.5225 111.694Z" fill="#E2683C"/>
<path d="M23.5407 99.4664C24.4098 100.137 25.1721 99.2682 25.6142 98.5669C26.1631 97.7131 25.9649 95.7615 24.5317 96.2647C23.7084 96.5543 23.2205 97.6064 23.1443 98.4297C23.0833 98.8718 23.251 99.2529 23.5407 99.4664Z" fill="#E2683C"/>
<path d="M18.6309 96.3559C19.9421 96.5541 22.1376 92.9865 20.2623 92.8035C19.1036 92.6968 18.1735 94.4349 18.0516 95.3802C18.0211 95.6089 18.0211 95.8528 18.1583 96.0357C18.2803 96.2187 18.448 96.3254 18.6309 96.3559Z" fill="#E2683C"/>
<path d="M123.984 202.272C109.835 223.648 111.924 250.588 116.742 274.555C116.925 275.455 115.537 275.851 115.354 274.936C110.46 250.588 108.371 223.251 122.733 201.54C123.252 200.778 124.487 201.495 123.984 202.272Z" fill="#5D5D5D"/>
<path d="M122.917 202.226C119.639 195.228 115.721 187.819 108.052 184.937C105.551 183.992 105.14 186.706 105.887 188.337C106.344 189.343 107.198 190.151 107.96 190.914C109.5 192.469 111.269 193.856 112.991 195.183C116.117 197.592 119.502 199.65 122.993 201.464C123.816 201.891 123.085 203.126 122.261 202.699C118.633 200.824 98.3092 189.664 105.048 183.687C107.533 181.476 112.824 185.7 114.608 187.163C119.09 190.853 121.743 196.341 124.152 201.479C124.548 202.333 123.313 203.065 122.917 202.226Z" fill="#5D5D5D"/>
<path d="M121.407 201.403C122.825 197.531 125.112 194.268 128.345 191.691C130.616 189.862 135.937 187.209 138.834 189.282C141.517 191.203 139.078 194.573 137.203 196.097C135.663 197.348 133.727 198.08 131.912 198.857C128.893 200.138 125.875 201.418 122.856 202.699C122.017 203.065 121.286 201.815 122.124 201.464C125.143 200.183 128.162 198.903 131.18 197.622C134.031 196.418 138.117 194.969 138.59 191.417C138.88 189.252 133.65 190.533 132.934 190.746C131.104 191.31 129.488 192.56 128.07 193.795C125.631 195.93 123.893 198.781 122.795 201.8C122.475 202.653 121.087 202.272 121.407 201.403Z" fill="#5D5D5D"/>
<path d="M124.121 200.915C119.136 190.014 127.521 179.692 135.221 172.832C142.859 166.016 150.162 159.582 155.925 150.999C158.548 147.096 160.636 142.888 161.612 138.283C162.542 133.862 161.49 129.501 160.149 125.293C158.548 120.232 156.489 115.2 157.984 109.834C159.218 105.397 163.015 102.271 163.731 97.5756C163.869 96.7371 162.588 96.3864 162.451 97.2249C161.734 101.814 158.273 105.214 156.703 109.483C155.27 113.401 156.398 117.838 157.557 121.65C159.218 127.093 161.231 132.124 160.316 137.933C159.371 143.955 155.59 149.398 152.053 154.185C145.192 163.455 135.449 169.554 127.963 178.168C122.444 184.525 119.288 193.567 122.947 201.586C123.329 202.364 124.472 201.693 124.121 200.915Z" fill="#5D5D5D"/>
<path d="M136.013 93.3524C135.556 103.263 129.594 111.678 127.628 121.238C125.554 131.301 131.439 140.098 132.628 149.825C133.253 154.917 131.912 160.101 129.518 164.568C127.201 168.883 123.191 171.917 120.096 175.622C114.013 182.879 117.245 190.898 121.514 198.156C121.758 198.567 122.429 198.598 122.657 198.156C123.42 196.723 124.167 195.289 124.929 193.841C125.325 193.094 124.182 192.423 123.785 193.17C123.023 194.603 122.276 196.036 121.514 197.485C121.895 197.485 122.276 197.485 122.657 197.485C119.715 192.484 116.681 187.026 118.419 181.065C119.699 176.689 123.953 173.457 126.957 170.255C132.308 164.538 135.068 156.304 133.802 148.529C132.994 143.604 131.165 138.985 129.777 134.228C128.237 128.937 128.207 123.891 129.64 118.585C131.942 110.017 136.943 102.439 137.355 93.3829C137.37 92.4986 136.044 92.4986 136.013 93.3524Z" fill="#5D5D5D"/>
<path d="M139.047 88.4278C141.105 90.852 142.934 93.4895 144.474 96.2644C144.657 96.5846 144.84 96.9657 144.718 97.3164C144.581 97.7433 144.047 97.9262 143.605 97.8347C143.163 97.7433 142.812 97.4384 142.477 97.1487C141.928 96.6761 141.379 96.2034 140.815 95.7308C141.776 96.859 141.669 98.7343 140.571 99.7405C139.687 99.0849 138.97 98.2159 138.467 97.2402C138.315 97.911 138.147 98.5971 137.705 99.1155C137.263 99.6339 136.424 99.8778 135.875 99.4814C135.22 98.9935 135.357 97.9872 135.57 97.1944C135.205 97.8348 134.808 98.4904 134.168 98.8715C133.527 99.2527 132.613 99.2527 132.17 98.6733C131.82 98.2159 131.866 97.5908 131.942 97.0267C132.414 93.2304 133.36 89.5103 134.747 85.9426" fill="#94B0B2"/>
<path d="M94.9083 33.6783C94.7101 36.4226 94.7559 39.228 95.0608 42.0333C97.0733 60.3594 109.484 78.6245 125.172 88.062C127.81 89.6476 130.722 91.3704 133.726 92.148C136.836 92.9408 138.437 92.5749 141.135 90.852C151.32 84.3571 158.943 73.6999 161.672 61.9145C164.477 49.8546 163.746 36.3616 159.233 24.9269C155.863 16.3737 148.987 8.79627 140.876 4.37483C134.503 0.898669 126.743 0.63948 119.668 2.30133C104.346 5.89947 95.9908 18.9961 94.9083 33.6783Z" fill="#66921B"/>
<g opacity="0.13">
<path opacity="0.13" d="M130.859 31.4067C132.064 23.7225 134.671 16.1451 139.306 9.90938C140.434 8.39999 141.684 6.96682 143.057 5.65564C150.207 10.1838 156.184 17.1361 159.263 24.927C163.776 36.3618 164.508 49.8548 161.703 61.9146C159.507 71.3826 154.141 80.1187 146.838 86.5679C134.015 71.5656 127.78 50.9373 130.859 31.4067Z" fill="#A3C0C4"/>
</g>
<path d="M165.453 91.1266C166.643 94.2063 167.527 97.4081 168.091 100.656C168.152 101.037 168.213 101.464 167.969 101.769C167.695 102.134 167.1 102.134 166.704 101.89C166.307 101.647 166.063 101.235 165.819 100.838C165.438 100.183 165.057 99.5425 164.676 98.8869C165.24 100.32 164.478 102.119 163.075 102.729C162.435 101.784 162.023 100.701 161.855 99.5731C161.474 100.168 161.078 100.793 160.468 101.143C159.858 101.494 158.959 101.464 158.562 100.869C158.074 100.168 158.562 99.2224 159.035 98.5211C158.455 99.0089 157.846 99.5273 157.098 99.6798C156.351 99.8475 155.452 99.5273 155.208 98.7955C155.025 98.2314 155.284 97.6368 155.543 97.1032C157.297 93.5508 159.507 90.227 162.069 87.2083" fill="#EFB83C"/>
<path d="M141.395 22.6399C140.373 24.8964 139.52 27.2291 138.834 29.6075C133.345 48.7722 139.428 70.8946 152.022 86.0494C154.065 88.5041 156.321 91.1875 159.004 92.956C161.779 94.7856 163.472 94.9838 166.704 94.2215C178.901 91.3399 190 83.5033 196.709 72.9071C203.569 62.0517 207.473 48.5892 206.954 35.8585C206.573 26.3295 202.426 16.5566 196.007 9.46709C190.945 3.88693 183.444 0.974885 175.943 0.182076C159.873 -1.52551 147.585 8.99445 141.395 22.6399Z" fill="#FFD643"/>
<g opacity="0.25">
<path opacity="0.25" d="M182.453 14.3459C189.985 4.40531 197.181 19.3315 199.193 25.2623C201.191 31.1474 201.48 37.4746 201.084 43.6646C200.535 52.1568 198.172 61.4266 191.113 66.1987C188.536 67.9368 184.755 68.8058 182.529 66.6408C181.187 65.3296 180.852 63.3171 180.715 61.4418C180.105 52.6599 182.361 43.8323 181.447 35.0809C181.081 31.5438 180.196 28.0676 179.983 24.5152C179.769 20.9476 180.303 17.1817 182.453 14.3459Z" fill="white"/>
</g>
<g opacity="0.25">
<path opacity="0.25" d="M100.062 32.8856C100.107 27.3207 102.455 16.694 108.996 15.0779C115.994 13.355 118.952 22.4571 119.363 27.6866C120.004 35.7519 120.659 43.8325 121.3 51.8978C121.467 54.0628 121.62 56.3802 120.553 58.286C118.571 61.8231 113.189 62.0671 109.85 59.7496C106.526 57.4322 104.818 53.4529 103.461 49.626C101.571 44.2288 100.016 38.6182 100.062 32.8856Z" fill="white"/>
</g>
</svg>
