<svg width="90" height="181" viewBox="0 0 90 181" fill="none" xmlns="http://www.w3.org/2000/svg">
<path d="M13.6033 140.884L2.73717 148.106L14.5748 144.192C14.224 143.157 13.9001 142.054 13.6033 140.884Z" fill="#111111"/>
<path d="M14.5066 143.968L6.69336 154.697L15.8025 147.429C15.3718 146.417 14.9271 145.243 14.5066 143.968Z" fill="#111111"/>
<path d="M35.9349 164.528L35.4023 163.687L26.0511 169.607L26.5837 170.448L35.9349 164.528Z" fill="#111111"/>
<path d="M26.1429 174.035L25.1624 173.873C25.498 171.862 25.7815 170.773 25.9902 170.149C25.0399 170.148 23.1612 170.211 21.4492 170.308L21.3968 169.313C27.0395 169.01 27.0845 169.154 27.2198 169.584L26.9934 170.194C27.0394 170.157 27.0706 170.138 27.0706 170.138C26.8652 170.418 26.4278 172.388 26.1429 174.035Z" fill="#111111"/>
<path d="M27.0373 170.153L26.4229 169.37L21.4518 173.268L22.0663 174.052L27.0373 170.153Z" fill="#111111"/>
<path d="M41.4593 165.243L40.6924 164.608L33.6338 173.132L34.4007 173.767L41.4593 165.243Z" fill="#111111"/>
<path d="M34.1189 177.447C33.816 175.442 33.7348 174.302 33.7618 173.66C32.8528 173.951 31.0893 174.594 29.5047 175.221L29.1474 174.301C34.4119 172.261 34.5044 172.384 34.7655 172.755L34.7385 173.397C34.7669 173.345 34.7804 173.311 34.7804 173.311C34.6633 173.665 34.8672 175.663 35.1082 177.33L34.1189 177.447Z" fill="#111111"/>
<path d="M34.7499 173.34L33.9229 172.786L30.4045 178.033L31.2316 178.587L34.7499 173.34Z" fill="#111111"/>
<path d="M17.7453 151.555C17.7453 151.555 4.72734 128.685 19.8636 117.951C35.8484 106.605 48.1787 118.77 51.2014 131.486C53.9912 143.207 65.6791 160.687 83.6368 151.907C101.595 143.127 45.0874 191.122 17.7453 151.555Z" fill="#FFD643"/>
<path d="M45.7898 138.127C41.4383 141.645 41.208 148.709 48.0449 148.959C54.8818 149.209 60.2842 141.128 57.8882 141.464C55.4923 141.801 58.8173 138.731 63.7273 135.803C68.6387 132.892 64.7897 132.714 64.3018 132.756C63.8139 132.798 72.3235 125.417 65.6705 127.314C58.9864 129.23 49.9276 134.79 45.7898 138.127Z" fill="#E2683C"/>
<path d="M21.3066 156.034C34.2205 170.23 51.8498 168.9 65.621 164.034C56.3914 163.202 47.9409 158.077 39.969 151.847C31.3141 145.101 23.849 152.818 21.3066 156.034Z" fill="#E2683C"/>
<path d="M24.0241 138.795C27.7159 138.479 30.4523 135.23 30.136 131.538C29.8198 127.846 26.5706 125.11 22.8789 125.426C19.1871 125.742 16.4507 128.991 16.767 132.683C17.0832 136.375 20.3324 139.111 24.0241 138.795Z" fill="white"/>
<path d="M22.8293 134.408C24.2306 134.288 25.2692 133.055 25.1492 131.654C25.0291 130.253 23.7959 129.214 22.3946 129.334C20.9934 129.454 19.9547 130.687 20.0748 132.089C20.1948 133.49 21.4281 134.528 22.8293 134.408Z" fill="#111111"/>
<path d="M21.0321 132.744C21.4543 132.708 21.7672 132.336 21.731 131.914C21.6949 131.492 21.3233 131.179 20.9011 131.215C20.479 131.251 20.166 131.623 20.2022 132.045C20.2384 132.467 20.6099 132.78 21.0321 132.744Z" fill="#FCFCFC"/>
<path d="M18 1C19.9371 8.8392 26.6009 27.81 37.7588 40.9799C48.9168 54.1497 39.696 66.4573 33.6908 70.9648C26.7171 79.7839 15.5592 101.538 26.7171 118" stroke="#FFD34E" stroke-width="1.5"/>
</svg>
