<svg width="67" height="59" viewBox="0 0 67 59" fill="none" xmlns="http://www.w3.org/2000/svg">
<path d="M60.8828 43.533C62.5555 44.9869 64.7837 45.7907 67.0001 45.7435C64.3168 47.8121 60.2149 47.7707 57.5729 45.643" fill="#A8D86F"/>
<path d="M22.4411 36.2454C21.0817 39.573 17.4823 41.4998 13.9419 42.1085C13.1381 42.2445 12.1687 42.4573 11.9146 43.2315C11.8319 43.4916 11.8496 43.7694 11.8851 44.0353C12.4525 48.3559 18.5107 52.6942 21.4777 47.9067C23.6705 44.3663 26.0938 40.9678 28.7299 37.7525" fill="#98C15D"/>
<path d="M54.5586 39.8862C57.4666 43.533 59.7066 47.7176 61.1192 52.1623C61.2434 52.5583 61.3675 52.9779 61.2906 53.3916C61.1547 54.1127 60.4514 54.5737 59.7953 54.9106C57.5316 56.0573 55.0019 56.6779 52.4663 56.7192C51.7157 52.5701 51.3374 48.3559 51.3433 44.1418" fill="#98C15D"/>
<path d="M45.1669 41.5708C45.2555 44.4137 45.1255 47.2685 44.7768 50.0937C44.5108 52.2805 43.0686 54.0005 42.6785 56.081C42.5603 56.6957 42.6904 57.399 43.1691 57.8068C43.4765 58.0669 43.8843 58.1733 44.2744 58.2738C46.4612 58.8234 48.79 59.3554 50.9414 58.6757C53.6247 57.8246 53.4533 54.0064 53.5952 51.6895C53.7784 48.7461 53.6188 45.7909 53.4119 42.8534" fill="#A8D86F"/>
<path d="M23.8537 38.001C23.2863 41.4941 21.4836 44.5971 19.0899 47.1563C18.0733 48.2438 16.3415 48.9235 16.1169 50.6021C15.9396 51.9142 16.9857 53.0786 17.9196 53.8883C19.7636 55.4841 23.4636 57.0504 25.3668 54.6921C26.5489 53.2204 27.3941 51.1695 28.2038 49.4673C29.3504 47.0499 30.1483 44.467 30.5562 41.8191" fill="#A8D86F"/>
<path d="M42.6785 56.075C42.7435 55.7204 42.8499 55.3776 42.9622 55.0407C43.2223 54.9166 43.5119 54.8456 43.7956 54.8929C44.1798 54.952 44.5167 55.1884 44.7767 55.4721C45.2673 56.01 45.5333 56.7547 45.4919 57.4817C45.8111 56.9557 46.5853 56.7961 47.1055 57.1152C47.6256 57.4403 47.8324 58.1732 47.5842 58.7347L47.7142 58.9357C46.5617 58.8234 45.4032 58.5515 44.2803 58.2678C43.8902 58.1673 43.4823 58.0609 43.175 57.8009C42.6903 57.399 42.5662 56.6897 42.6785 56.075Z" fill="#DDE26A"/>
<path d="M23.1149 21.4399C21.5014 23.6799 20.6798 26.3219 19.3145 28.6979C18.2624 30.5243 16.7435 32.4038 14.6393 33.0421C13.6168 33.3554 17.1099 38.4384 17.6596 39.0176C19.4209 40.8676 21.8146 42.4693 24.0547 43.6809C28.0679 45.8619 32.5717 47.0085 37.105 47.5346C43.1987 48.2438 49.4224 47.8596 55.3801 46.4057C57.7916 45.8205 60.4277 44.8276 61.4384 42.5639C60.0317 41.1217 59.0742 39.9101 58.5954 37.8591C57.9571 35.1285 57.5493 32.4038 56.9228 29.6554C55.8293 24.8502 53.4711 20.0391 49.4638 17.0129C41.5142 11.0079 28.8363 13.5021 23.1149 21.4399Z" fill="#7AAF00"/>
<path d="M16.1111 50.602C16.2471 49.609 16.909 48.9648 17.636 48.3796C17.8902 48.5865 18.097 48.8525 18.2152 49.1598C18.493 49.8986 18.3098 50.7556 17.8902 51.4235C18.2566 51.4294 18.558 51.0985 18.9245 51.0807C19.4387 51.0571 19.7756 51.6422 19.7874 52.1564C19.8051 52.6706 19.6337 53.1849 19.7106 53.6932C19.8229 53.2853 20.3253 53.0666 20.7213 53.1967C21.1232 53.3208 21.3951 53.7286 21.4483 54.1423C21.5014 54.562 21.3596 54.9816 21.1468 55.3422L21.0818 55.6377C19.8761 55.2771 18.7176 54.5856 17.9138 53.8941C16.9799 53.0844 15.9338 51.9141 16.1111 50.602Z" fill="#DDE26A"/>
<path d="M21.7437 4.31708C21.6846 4.26389 22.3052 3.53098 23.1267 2.68579C23.9542 1.84059 24.6694 1.20226 24.7225 1.26136C24.7817 1.32047 24.1611 2.05337 23.3395 2.89266C22.5179 3.73194 21.8028 4.37027 21.7437 4.31708Z" fill="#FFCB47"/>
<path d="M21.8501 4.24025C21.791 4.19297 22.3879 3.51326 23.3868 3.06998C24.3798 2.62078 25.2841 2.6326 25.2841 2.70353C25.2959 2.79219 24.4507 2.9104 23.5109 3.33595C22.5652 3.7556 21.9092 4.30527 21.8501 4.24025Z" fill="#FFCB47"/>
<path d="M21.7792 3.98617C21.7615 3.90933 22.5771 3.667 23.6055 3.76157C24.6339 3.84431 25.3964 4.22258 25.3668 4.2935C25.3373 4.37625 24.563 4.13393 23.5819 4.05709C22.6007 3.96843 21.7969 4.07482 21.7792 3.98617Z" fill="#FFCB47"/>
<path d="M21.9269 3.93886C21.9269 3.90339 22.1397 3.86794 22.4766 3.93296C22.8076 3.99206 23.2568 4.17529 23.6705 4.48854C24.498 5.12687 24.8585 5.89523 24.8053 5.92478C24.7285 5.98389 24.2615 5.31009 23.4932 4.72496C22.7248 4.128 21.9151 4.0216 21.9269 3.93886Z" fill="#FFCB47"/>
<path d="M22.0333 3.72589C22.0806 3.66679 22.6539 4.09233 23.0027 4.87842C23.3573 5.66451 23.2923 6.37378 23.2154 6.36787C23.1268 6.37378 23.0618 5.71772 22.7308 4.99664C22.4175 4.27556 21.9742 3.785 22.0333 3.72589Z" fill="#FFCB47"/>
<path d="M22.0275 4.2343C21.9506 4.19884 22.2461 3.4364 22.4412 2.45526C22.6421 1.48004 22.6658 0.658478 22.7544 0.658478C22.8313 0.652568 22.9436 1.49775 22.7367 2.51435C22.5298 3.53686 22.0925 4.26976 22.0275 4.2343Z" fill="#FFCB47"/>
<path d="M20.9576 1.03086C20.9812 1.00131 21.1704 1.08996 21.4009 1.33229C21.6314 1.57461 21.8737 1.97653 22.0215 2.46119C22.2934 3.43641 22.2343 4.23433 22.1693 4.24024C22.0688 4.25206 21.9919 3.45415 21.7378 2.54394C21.4777 1.63373 20.9103 1.08997 20.9576 1.03086Z" fill="#FFCB47"/>
<path d="M19.6159 2.02378C19.6218 1.98831 19.8228 1.96468 20.1479 2.02969C20.4729 2.09471 20.9103 2.27202 21.3122 2.57936C21.7141 2.89262 21.9919 3.27088 22.1338 3.57231C22.2815 3.86784 22.3052 4.0747 22.2756 4.08652C22.1929 4.12198 21.8855 3.38318 21.1349 2.81578C20.3902 2.23064 19.5982 2.10652 19.6159 2.02378Z" fill="#FFCB47"/>
<path d="M15.5495 33.0126C14.3379 32.061 14.1251 30.2701 14.4561 28.7629C14.9821 26.3751 16.111 24.1823 17.0862 21.9777C19.3618 16.8534 16.4243 11.0197 10.697 10.5942C7.82455 10.3814 4.32556 11.3803 2.38693 13.579C0.140953 16.1323 -0.550566 19.9445 0.44239 23.2071C1.00389 25.0394 3.17302 28.1896 5.44264 27.9532C5.44264 31.0976 6.08096 34.1178 8.36831 36.4584C10.7739 38.9171 13.5577 39.78 16.9621 39.8332C18.4929 39.8569 20.0769 39.5377 21.33 38.6571" fill="#A8D86F"/>
<path d="M14.2256 33.0774C14.1901 32.5159 14.3497 32.0608 14.8107 31.8008C16.4834 30.8551 17.2517 33.3848 17.89 34.3659C18.8594 35.8553 20.0592 37.1911 21.4009 38.3555C24.0665 40.6783 27.2936 42.3391 30.6744 43.3321C36.6321 45.0875 42.9859 44.9397 49.1682 44.3368C51.4733 44.1123 53.7902 43.8108 56.0303 43.1961C57.1296 42.8947 58.3649 42.5696 59.3578 41.9963C60.0139 41.618 60.8177 40.6192 61.6688 41.1452C62.0116 41.358 62.1535 41.8013 62.0944 42.1973C62.0412 42.5933 61.8166 42.9479 61.5684 43.2611C59.9962 45.2293 57.6852 45.8381 55.3801 46.3996C49.4164 47.8536 43.1986 48.2377 37.105 47.5285C32.5716 47.0025 28.062 45.8558 24.0547 43.6749C21.8146 42.4573 19.4209 40.8556 17.6595 39.0115C16.838 38.1604 14.3556 34.9983 14.2256 33.0774Z" fill="#6D8E13"/>
<path d="M7.15678 19.5722C6.91445 19.3003 6.76078 18.1241 7.38729 18.1773C7.86603 18.2187 7.63552 19.123 7.57642 19.3712C7.54095 19.519 7.4523 19.6963 7.30454 19.6726C7.23952 19.6608 7.19224 19.6194 7.15678 19.5722Z" fill="#586D35"/>
<path d="M5.54915 18.709C5.37183 17.9998 6.72532 17.2905 6.4298 18.1889C6.34705 18.4372 5.70282 19.3355 5.54915 18.709Z" fill="#586D35"/>
<path d="M4.75117 19.1759C4.83392 19.2054 4.83391 19.3827 4.91666 19.6192C4.9935 19.8497 5.17082 20.1452 5.44861 20.2989C5.73231 20.4526 6.07511 20.4348 6.31153 20.3698C6.54795 20.3107 6.70753 20.2102 6.77255 20.2634C6.83165 20.3048 6.78437 20.5353 6.50067 20.7422C6.22879 20.9431 5.69094 21.0909 5.17082 20.819C4.65661 20.5353 4.47929 20.0034 4.50293 19.6665C4.52066 19.3177 4.68615 19.1463 4.75117 19.1759Z" fill="#76964A"/>
<path d="M8.01376 20.2988C7.94875 20.2633 8.06696 19.8259 8.49251 19.2349C8.70529 18.9394 8.9949 18.6143 9.37317 18.3129C9.56231 18.1651 9.76326 17.9937 10.0706 17.8873C10.3779 17.7691 10.7858 17.84 11.0517 18.0055C11.5955 18.3365 11.9088 18.8153 12.1038 19.2881C12.287 19.7609 12.3225 20.222 12.287 20.5943C12.2043 21.3509 11.8615 21.7114 11.8083 21.6759C11.7196 21.6345 11.9029 21.2326 11.8674 20.5825C11.8497 20.2633 11.7787 19.8791 11.6014 19.5009C11.43 19.1344 11.1345 18.7443 10.7621 18.5197C10.573 18.4133 10.4193 18.3897 10.2538 18.4429C10.0824 18.4961 9.89329 18.6202 9.71006 18.7502C9.35544 19.0044 9.05401 19.2704 8.81759 19.5068C8.33884 19.9855 8.0906 20.3402 8.01376 20.2988Z" fill="#76964A"/>
<path d="M2.05592 16.1675C1.99681 16.1261 2.12685 15.7715 2.57604 15.3459C2.80655 15.145 3.12571 14.9085 3.59855 14.8612C4.05956 14.8021 4.62697 15.0563 4.89885 15.5114C5.18255 15.9488 5.25347 16.4512 5.18255 16.8826C5.11753 17.3023 4.95204 17.6392 4.79837 17.8933C4.48512 18.4016 4.21915 18.6439 4.15413 18.6026C4.0773 18.5612 4.21915 18.2243 4.4201 17.7101C4.61515 17.2077 4.81019 16.4571 4.40237 15.8424C4.21324 15.5469 3.92363 15.4109 3.6281 15.4109C3.33258 15.4109 3.04887 15.5528 2.83019 15.6887C2.38099 15.9665 2.12684 16.2266 2.05592 16.1675Z" fill="#76964A"/>
<g opacity="0.38">
<path opacity="0.38" d="M55.0196 30.4708C54.8719 31.712 53.8848 32.4035 52.7205 31.842C52.2062 31.5938 50.6636 30.2343 50.6341 29.6788C50.6222 29.4601 50.7109 29.2532 50.8055 29.0582C52.354 25.6419 55.4452 26.9363 55.0196 30.4708Z" fill="#66921B"/>
<path opacity="0.38" d="M41.8452 38.4974C41.792 35.8436 44.5699 31.9486 47.5429 32.191C48.0275 32.2323 48.4945 32.4096 48.9259 32.6342C51.0773 33.7277 53.3174 36.5588 51.757 39.0353C51.0123 40.2233 49.5761 40.7434 48.2462 41.1808C47.9271 41.2872 47.6138 41.3935 47.2946 41.494C46.2189 41.8486 45.0546 42.2092 43.9789 41.8486C42.6431 41.4054 41.8747 39.91 41.8452 38.4974Z" fill="#66921B"/>
<path opacity="0.38" d="M31.9333 26.836C32.1166 25.2697 34.989 23.0473 36.4785 22.9942C38.4762 22.9232 40.6631 24.259 41.3723 26.1503C41.7388 27.1256 41.6383 28.2367 41.266 29.206C40.8936 30.1813 40.273 31.0383 39.5992 31.8362C39.4455 32.0194 39.28 32.2026 39.0732 32.3209C38.7895 32.4745 38.4526 32.4804 38.1334 32.4804C37.17 32.4863 36.177 32.4627 35.2905 32.0785C33.7006 31.387 32.8199 29.6966 32.1875 28.083C32.0338 27.687 31.8861 27.2615 31.9333 26.836Z" fill="#66921B"/>
<path opacity="0.38" d="M19.9765 27.4328C20.9812 25.4114 21.7732 23.2896 23.109 21.4396C23.6941 20.6299 24.3561 19.8793 25.0713 19.1877C25.2841 19.3769 25.4673 19.5837 25.615 19.832C26.1056 20.6535 26.0642 21.676 26.0051 22.6335C25.9638 23.2541 25.9283 23.8866 25.7628 24.4835C25.5146 25.3819 24.9885 26.1916 24.3088 26.83C23.5523 27.5451 22.5475 28.0712 21.5073 28.0239C20.9576 28.0002 20.4079 27.7815 19.9765 27.4328Z" fill="#66921B"/>
<path opacity="0.38" d="M34.2029 18.1299C33.3636 18.5909 32.412 19.0401 31.49 18.7978C31.0881 18.6914 30.7334 18.4609 30.3847 18.2363C29.6991 17.793 29.0017 17.332 28.5052 16.6818C28.4875 16.6582 28.4697 16.6286 28.452 16.605C30.7394 15.2338 33.3281 14.3235 35.9878 13.9216C36.0469 14.0458 36.1001 14.1758 36.1474 14.3058C36.3838 14.9914 36.437 15.7657 36.1356 16.4277C35.7692 17.2197 34.9712 17.7043 34.2029 18.1299Z" fill="#66921B"/>
<path opacity="0.38" d="M41.9398 18.7326C41.8334 17.1132 42.3653 15.4878 43.3346 14.1875C45.5333 14.7076 47.6315 15.6356 49.4697 17.0245C51.5029 18.5613 53.1105 20.559 54.3458 22.7813C53.5065 23.7861 52.4604 24.5663 51.1955 24.8736C49.9366 25.1751 48.6127 24.9564 47.3597 24.6254C46.4376 24.383 45.5215 24.0698 44.7177 23.5497C43.1041 22.5035 42.0639 20.6476 41.9398 18.7326Z" fill="#66921B"/>
<path opacity="0.38" d="M26.7853 34.5255C25.1895 34.4132 23.2745 32.9828 23.5641 31.3338C23.836 29.8089 25.42 28.3609 26.7558 27.758C26.9035 27.693 27.0631 27.628 27.2227 27.628C27.4296 27.6221 27.6305 27.7107 27.8196 27.8112C29.3859 28.6209 30.438 29.7321 30.1957 31.588C29.9711 33.2311 28.4993 34.6496 26.7853 34.5255Z" fill="#66921B"/>
<path opacity="0.38" d="M31.6142 41.3402C31.0704 40.3236 30.2843 38.7574 30.7394 37.5516C31.0822 36.6532 32.6544 35.5362 33.6296 35.6839C34.3566 35.7962 35.4087 37.1497 35.781 37.7407C36.3189 38.5978 36.443 39.7326 35.9761 40.625C35.3791 41.7599 33.9488 42.2682 32.6721 42.1263C32.4712 42.1027 32.2702 42.0672 32.0988 41.9608C31.8742 41.8249 31.7442 41.5766 31.6142 41.3402Z" fill="#66921B"/>
</g>
<path d="M4.50293 27.705C4.59159 27.5572 5.555 28.0655 6.82574 27.9769C8.09649 27.9178 8.99488 27.3031 9.10127 27.439C9.14855 27.4981 8.98306 27.7463 8.59297 28.0064C8.20879 28.2724 7.58228 28.5206 6.85529 28.5679C6.1283 28.6093 5.47815 28.432 5.06442 28.2133C4.6566 27.9946 4.46156 27.7641 4.50293 27.705Z" fill="#76964A"/>
<path d="M9.6982 10.4463C9.67456 10.4582 9.65092 10.4759 9.62137 10.4877C10.0587 12.2195 11.1108 13.7562 12.4288 14.9619C12.8189 15.3166 17.8842 18.8628 18.1856 17.8462C18.889 15.4584 19.6514 13.0883 20.3902 10.7123C20.7685 9.49477 21.1468 8.28311 21.5073 7.05965C21.6905 6.44496 21.8678 5.83619 22.0392 5.2215C22.1811 4.71911 22.4412 4.16943 22.5121 3.66113C22.3407 3.72024 22.1752 3.80299 22.0097 3.88573C21.4837 4.14579 20.9163 4.34084 20.3902 4.60681C19.9351 4.83732 19.5155 5.14466 19.0663 5.39881C15.9869 7.16604 12.813 8.7264 9.6982 10.4463Z" fill="#F9C3C1"/>
<path d="M11.3176 9.57743C11.7786 9.32919 12.2396 9.08095 12.7006 8.83862C13.6286 11.9712 14.8934 15.2042 16.8853 17.7339C16.0105 17.3438 14.858 16.6404 13.9418 16.0317C12.8248 14.0044 11.9855 11.7702 11.3176 9.57743Z" fill="#F7D78F"/>
<path d="M19.3146 14.1403C19.1195 14.7668 18.9304 15.3933 18.7413 16.0198C16.9563 13.4901 15.5555 10.7595 14.5685 7.85156C15.0295 7.60923 15.4846 7.36689 15.9456 7.11865C16.7613 9.60105 17.8902 11.9475 19.3146 14.1403Z" fill="#F7D78F"/>
<path d="M18.6407 5.64697C19.1963 7.15414 19.8346 8.6554 20.5912 10.068C20.5262 10.2867 20.4612 10.5054 20.3902 10.7241C20.2484 11.1733 20.1124 11.6165 19.9706 12.0657C18.8949 10.3044 18.0201 8.35987 17.2872 6.40351C17.7364 6.14936 18.1915 5.90112 18.6407 5.64697Z" fill="#F7D78F"/>
<path d="M20.3962 4.61274C20.7626 4.42952 21.1468 4.27584 21.5191 4.11035C21.6787 4.51226 21.8442 4.90826 22.0156 5.30426C21.8501 5.8953 21.6787 6.48045 21.5014 7.0715C21.4541 7.22517 21.4068 7.37292 21.3655 7.52068C20.9163 6.62229 20.5026 5.69436 20.1243 4.76051C20.2189 4.70731 20.3075 4.65412 20.3962 4.61274Z" fill="#F7D78F"/>
</svg>
